<svg width="256" height="164" viewBox="0 0 256 164" fill="none" xmlns="http://www.w3.org/2000/svg">
<path d="M54.241 0.0499859C53.765 0.0429859 53.2812 0.0550095 52.803 0.0667095C48.9775 0.16371 45.0992 0.843331 41.47 1.6759C38.0708 2.45576 34.4194 3.75704 32.1057 6.36664C28.4801 10.4558 26.5933 21.7916 26.5933 21.7916C26.5933 21.7916 15.9743 28.891 12.2643 33.9296C8.7747 38.6691 6.9427 44.5056 5.3652 50.1756C4.3207 53.9299 4.0742 57.8674 3.7217 61.7486C1.3939 87.3786 -1.2935 110.707 0.691599 138.906C1.40002 148.97 5.785 153.905 11.7166 158.473C17.2058 162.7 24.9726 164.688 31.8316 163.711C37.2157 162.945 42.0096 159.222 45.8356 155.357C53.814 147.298 61.3186 127.341 62.9726 125.963C64.6259 124.585 66.8245 121.272 66.8245 121.272C66.8245 121.272 72.1173 126.056 75.3671 127.333C79.9375 129.128 85.1036 129.923 89.9701 129.267C96.2931 128.415 102.756 125.968 107.603 121.82C111.05 118.87 114.776 110.247 114.776 110.247H141.225C141.225 110.247 144.951 118.87 148.398 121.82C153.245 125.969 159.708 128.415 166.031 129.267C170.897 129.923 176.063 129.128 180.634 127.333C183.884 126.056 189.177 121.272 189.177 121.272C189.177 121.272 191.375 124.585 193.028 125.963C194.682 127.341 202.169 147.298 210.147 155.357C213.974 159.222 218.784 162.945 224.168 163.711C231.028 164.688 238.794 162.7 244.283 158.473C250.215 153.904 254.599 148.969 255.308 138.906C257.293 110.707 254.606 87.3786 252.278 61.7486C251.926 57.8677 251.662 53.9302 250.618 50.1756C249.04 44.5054 247.225 38.6686 243.736 33.9296C240.026 28.8914 229.407 21.7916 229.407 21.7916C229.407 21.7916 227.503 10.4566 223.877 6.36664C221.563 3.75704 217.929 2.4557 214.53 1.6759C207.272 0.0107014 199.005 -1.03261 192.189 1.96692C188.269 3.69212 185.594 8.02464 183.39 11.3312C181.185 14.6378 180.086 25.1122 180.086 25.1122L141.773 24.9581V24.8383L128.009 24.8898L114.228 24.8383V24.9581L75.9146 25.1122C75.9146 25.1122 74.815 14.6372 72.6106 11.3312C70.4062 8.02464 67.7316 3.69212 63.8112 1.96692C60.8291 0.654617 57.5733 0.100259 54.2414 0.0495586L54.241 0.0499859ZM209.741 27.561C214.922 27.561 219.122 31.7618 219.122 36.9424C219.122 42.1231 214.922 46.3238 209.741 46.3238C204.56 46.3238 200.36 42.123 200.36 36.9424C200.36 31.7617 204.56 27.561 209.741 27.561ZM38.431 32.868H53.53V44.098C53.53 44.098 48.0577 51.3064 45.9804 51.2197C43.775 51.1277 38.4308 44.098 38.4308 44.098L38.431 32.868ZM186.981 47.488C192.162 47.488 196.362 51.6888 196.362 56.8694C196.362 62.0501 192.162 66.2508 186.981 66.2508C181.8 66.2508 177.6 62.05 177.6 56.8694C177.6 51.6887 181.8 47.488 186.981 47.488ZM232.519 47.488C237.7 47.488 241.9 51.6888 241.9 56.8694C241.9 62.0501 237.7 66.2508 232.519 66.2508C227.338 66.2508 223.138 62.05 223.138 56.8694C223.138 51.6887 227.338 47.488 232.519 47.488ZM23.659 48.1728H34.889C34.889 48.1728 41.9186 53.5342 42.0107 55.7396C42.0975 57.8169 34.889 63.2892 34.889 63.2892H23.659V48.1728ZM57.076 48.1728H68.306V63.2888H57.076C57.076 63.2888 49.8676 57.8165 49.9543 55.7392C50.0463 53.5338 57.076 48.1724 57.076 48.1724V48.1728ZM145.781 52.1958L160.468 57.0064L145.781 61.8341V52.1958ZM94.436 52.5345H109.069V61.4952H94.436V52.5345ZM45.983 60.259C48.0603 60.1722 53.5326 67.3807 53.5326 67.3807V78.6108H38.4336V67.3807C38.4336 67.3807 43.7778 60.3511 45.9832 60.259H45.983ZM209.743 67.4321C214.924 67.4321 219.124 71.6329 219.124 76.8135C219.124 81.9942 214.924 86.1948 209.743 86.1948C204.562 86.1948 200.362 81.9941 200.362 76.8135C200.362 71.6328 204.562 67.4321 209.743 67.4321ZM86.083 83.832C96.203 83.832 104.401 92.0296 104.401 102.15C104.401 112.27 96.2034 120.485 86.083 120.485C75.9626 120.485 67.765 112.27 67.765 102.15C67.765 92.0298 75.9627 83.832 86.083 83.832ZM168.804 83.832C178.924 83.832 187.122 92.0296 187.122 102.15C187.122 112.27 178.924 120.485 168.804 120.485C158.684 120.485 150.486 112.27 150.486 102.15C150.486 92.0298 158.684 83.832 168.804 83.832Z" fill="#FCFCFC"/>
</svg>
