<?xml version="1.0" encoding="UTF-8"?>
<svg xmlns="http://www.w3.org/2000/svg" xmlns:xlink="http://www.w3.org/1999/xlink" width="189pt" height="38pt" viewBox="0 0 189 38" version="1.1">
<g id="surface1">
<path style=" stroke:none;fill-rule:nonzero;fill:rgb(100%,100%,100%);fill-opacity:1;" d="M 62.976562 26.828125 L 62.976562 12.25 L 57.792969 12.25 L 57.792969 9.285156 L 71.675781 9.285156 L 71.675781 12.253906 L 66.503906 12.253906 L 66.503906 26.828125 Z M 62.976562 26.828125 "/>
<path style=" stroke:none;fill-rule:nonzero;fill:rgb(100%,100%,100%);fill-opacity:1;" d="M 79.445312 22.78125 L 82.78125 23.34375 C 82.421875 24.476562 81.710938 25.460938 80.75 26.148438 C 79.824219 26.792969 78.667969 27.117188 77.277344 27.113281 C 75.074219 27.113281 73.445312 26.390625 72.390625 24.949219 C 71.554688 23.792969 71.140625 22.332031 71.140625 20.570312 C 71.140625 18.460938 71.6875 16.8125 72.78125 15.621094 C 73.839844 14.441406 75.359375 13.789062 76.941406 13.828125 C 78.824219 13.828125 80.3125 14.453125 81.40625 15.699219 C 82.503906 16.949219 83.023438 18.863281 82.972656 21.4375 L 74.570312 21.4375 C 74.59375 22.433594 74.863281 23.210938 75.378906 23.765625 C 75.875 24.308594 76.578125 24.613281 77.3125 24.597656 C 77.789062 24.613281 78.257812 24.460938 78.632812 24.164062 C 79.039062 23.800781 79.324219 23.316406 79.445312 22.78125 Z M 79.632812 19.382812 C 79.609375 18.410156 79.359375 17.671875 78.882812 17.164062 C 78.421875 16.671875 77.773438 16.398438 77.097656 16.40625 C 76.425781 16.414062 75.785156 16.703125 75.332031 17.207031 C 74.859375 17.742188 74.625 18.464844 74.628906 19.382812 Z M 79.632812 19.382812 "/>
<path style=" stroke:none;fill-rule:nonzero;fill:rgb(100%,100%,100%);fill-opacity:1;" d="M 84.507812 23.203125 L 87.867188 22.6875 C 87.972656 23.273438 88.28125 23.800781 88.738281 24.175781 C 89.175781 24.515625 89.789062 24.683594 90.574219 24.6875 C 91.441406 24.6875 92.089844 24.527344 92.527344 24.207031 C 92.816406 24 92.984375 23.664062 92.972656 23.308594 C 92.980469 23.074219 92.894531 22.847656 92.734375 22.675781 C 92.570312 22.515625 92.195312 22.367188 91.617188 22.226562 C 88.917969 21.628906 87.207031 21.082031 86.480469 20.585938 C 85.515625 19.964844 84.941406 18.878906 84.980469 17.726562 C 84.96875 16.652344 85.449219 15.632812 86.28125 14.957031 C 87.148438 14.210938 88.488281 13.835938 90.300781 13.835938 C 92.035156 13.835938 93.320312 14.121094 94.164062 14.6875 C 95.027344 15.285156 95.644531 16.179688 95.902344 17.199219 L 92.746094 17.785156 C 92.632812 17.324219 92.359375 16.921875 91.976562 16.648438 C 91.597656 16.386719 91.0625 16.253906 90.363281 16.253906 C 89.480469 16.253906 88.847656 16.378906 88.46875 16.625 C 88.234375 16.769531 88.089844 17.023438 88.085938 17.300781 C 88.089844 17.542969 88.214844 17.773438 88.417969 17.910156 C 88.714844 18.132812 89.757812 18.445312 91.546875 18.851562 C 93.332031 19.257812 94.578125 19.757812 95.28125 20.347656 C 95.980469 20.945312 96.328125 21.78125 96.328125 22.847656 C 96.328125 24.015625 95.84375 25.015625 94.875 25.855469 C 93.90625 26.691406 92.472656 27.109375 90.574219 27.109375 C 88.847656 27.109375 87.484375 26.757812 86.480469 26.054688 C 85.496094 25.382812 84.792969 24.363281 84.507812 23.203125 Z M 84.507812 23.203125 "/>
<path style=" stroke:none;fill-rule:nonzero;fill:rgb(100%,100%,100%);fill-opacity:1;" d="M 105.0625 14.128906 L 105.0625 16.820312 L 102.777344 16.820312 L 102.777344 21.921875 C 102.753906 22.527344 102.777344 23.132812 102.839844 23.734375 C 102.886719 23.90625 102.992188 24.058594 103.140625 24.160156 C 103.304688 24.273438 103.503906 24.332031 103.707031 24.328125 C 104.167969 24.292969 104.621094 24.183594 105.046875 24.003906 L 105.332031 26.613281 C 104.492188 26.957031 103.59375 27.128906 102.683594 27.113281 C 102.125 27.125 101.570312 27.019531 101.054688 26.808594 C 100.632812 26.648438 100.265625 26.375 99.992188 26.011719 C 99.738281 25.617188 99.578125 25.167969 99.523438 24.703125 C 99.429688 23.914062 99.394531 23.125 99.414062 22.332031 L 99.414062 16.800781 L 97.878906 16.800781 L 97.878906 14.128906 L 99.414062 14.128906 L 99.414062 11.597656 L 102.777344 9.644531 L 102.777344 14.128906 Z M 105.0625 14.128906 "/>
<path style=" stroke:none;fill-rule:nonzero;fill:rgb(100%,100%,100%);fill-opacity:1;" d="M 114.714844 22.78125 L 118.054688 23.34375 C 117.695312 24.476562 116.980469 25.460938 116.019531 26.148438 C 115.097656 26.792969 113.9375 27.117188 112.546875 27.113281 C 110.347656 27.113281 108.71875 26.390625 107.660156 24.949219 C 106.828125 23.792969 106.410156 22.332031 106.410156 20.570312 C 106.410156 18.460938 106.957031 16.8125 108.054688 15.621094 C 109.113281 14.441406 110.632812 13.789062 112.214844 13.828125 C 114.09375 13.828125 115.582031 14.453125 116.679688 15.699219 C 117.777344 16.949219 118.296875 18.863281 118.242188 21.4375 L 109.84375 21.4375 C 109.867188 22.433594 110.136719 23.210938 110.652344 23.765625 C 111.144531 24.308594 111.851562 24.613281 112.582031 24.597656 C 113.0625 24.613281 113.527344 24.460938 113.90625 24.164062 C 114.3125 23.800781 114.59375 23.316406 114.714844 22.78125 Z M 114.90625 19.382812 C 114.882812 18.410156 114.632812 17.671875 114.15625 17.164062 C 113.691406 16.671875 113.046875 16.398438 112.371094 16.40625 C 111.695312 16.414062 111.058594 16.703125 110.605469 17.207031 C 110.128906 17.742188 109.894531 18.464844 109.902344 19.382812 Z M 114.90625 19.382812 "/>
<path style=" stroke:none;fill-rule:nonzero;fill:rgb(100%,100%,100%);fill-opacity:1;" d="M 127.667969 8.210938 L 129.253906 4.859375 L 132.066406 4.859375 L 129.445312 8.210938 Z M 128.265625 26.824219 L 128.265625 9.285156 L 130.574219 9.285156 L 130.574219 26.828125 Z M 128.265625 26.824219 "/>
<path style=" stroke:none;fill-rule:nonzero;fill:rgb(100%,100%,100%);fill-opacity:1;" d="M 134.378906 26.828125 L 134.378906 14.128906 L 136.296875 14.128906 L 136.296875 15.921875 C 136.695312 15.296875 137.238281 14.78125 137.882812 14.417969 C 138.566406 14.03125 139.34375 13.835938 140.132812 13.851562 C 140.941406 13.816406 141.742188 14.019531 142.441406 14.4375 C 143.035156 14.824219 143.484375 15.402344 143.707031 16.078125 C 144.707031 14.59375 146.011719 13.851562 147.617188 13.851562 C 148.871094 13.851562 149.839844 14.199219 150.519531 14.898438 C 151.199219 15.59375 151.539062 16.671875 151.53125 18.121094 L 151.53125 26.84375 L 149.398438 26.84375 L 149.398438 18.820312 C 149.398438 17.960938 149.328125 17.339844 149.191406 16.960938 C 149.050781 16.578125 148.78125 16.257812 148.433594 16.046875 C 148.046875 15.808594 147.597656 15.6875 147.140625 15.699219 C 146.308594 15.675781 145.507812 16 144.921875 16.59375 C 144.335938 17.191406 144.039062 18.144531 144.03125 19.449219 L 144.03125 26.832031 L 141.890625 26.832031 L 141.890625 18.570312 C 141.890625 17.613281 141.71875 16.894531 141.367188 16.417969 C 141.015625 15.941406 140.453125 15.699219 139.660156 15.699219 C 139.066406 15.695312 138.484375 15.859375 137.984375 16.175781 C 137.464844 16.503906 137.070312 16.996094 136.867188 17.578125 C 136.644531 18.191406 136.53125 19.078125 136.53125 20.234375 L 136.53125 26.828125 Z M 134.378906 26.828125 "/>
<path style=" stroke:none;fill-rule:nonzero;fill:rgb(100%,100%,100%);fill-opacity:1;" d="M 154.707031 31.695312 L 154.707031 14.128906 L 156.660156 14.128906 L 156.660156 15.777344 C 157.066406 15.183594 157.601562 14.6875 158.226562 14.324219 C 158.875 13.984375 159.601562 13.816406 160.332031 13.839844 C 161.351562 13.820312 162.347656 14.113281 163.195312 14.675781 C 164.039062 15.261719 164.6875 16.085938 165.0625 17.042969 C 165.492188 18.105469 165.707031 19.242188 165.695312 20.386719 C 165.710938 21.59375 165.476562 22.792969 164.996094 23.898438 C 164.167969 25.839844 162.277344 27.101562 160.175781 27.125 C 159.507812 27.136719 158.847656 26.980469 158.253906 26.675781 C 157.710938 26.394531 157.234375 26.003906 156.851562 25.527344 L 156.851562 31.710938 Z M 156.648438 20.546875 C 156.648438 22.179688 156.976562 23.386719 157.636719 24.171875 C 158.214844 24.910156 159.097656 25.34375 160.035156 25.339844 C 160.996094 25.339844 161.902344 24.894531 162.492188 24.128906 C 163.171875 23.320312 163.507812 22.0625 163.507812 20.363281 C 163.507812 18.746094 163.179688 17.53125 162.515625 16.726562 C 161.851562 15.921875 161.058594 15.519531 160.136719 15.519531 C 159.222656 15.519531 158.414062 15.945312 157.714844 16.804688 C 157.011719 17.660156 156.65625 18.90625 156.648438 20.546875 Z M 156.648438 20.546875 "/>
<path style=" stroke:none;fill-rule:nonzero;fill:rgb(100%,100%,100%);fill-opacity:1;" d="M 176.535156 25.261719 C 175.859375 25.867188 175.082031 26.351562 174.242188 26.695312 C 173.488281 26.980469 172.683594 27.121094 171.878906 27.113281 C 170.488281 27.113281 169.421875 26.773438 168.671875 26.09375 C 167.9375 25.425781 167.527344 24.472656 167.554688 23.476562 C 167.550781 22.882812 167.695312 22.292969 167.980469 21.773438 C 168.246094 21.273438 168.632812 20.847656 169.097656 20.53125 C 169.570312 20.214844 170.089844 19.976562 170.640625 19.828125 C 171.265625 19.683594 171.898438 19.574219 172.535156 19.511719 C 174.265625 19.300781 175.539062 19.054688 176.359375 18.769531 C 176.359375 18.472656 176.371094 18.285156 176.371094 18.203125 C 176.371094 17.328125 176.167969 16.710938 175.761719 16.351562 C 175.214844 15.863281 174.402344 15.621094 173.320312 15.621094 C 172.3125 15.621094 171.566406 15.796875 171.085938 16.152344 C 170.609375 16.507812 170.253906 17.136719 170.023438 18.035156 L 167.925781 17.75 C 168.066406 16.957031 168.390625 16.210938 168.863281 15.566406 C 169.363281 14.96875 170.023438 14.527344 170.761719 14.289062 C 171.683594 13.972656 172.65625 13.820312 173.632812 13.839844 C 174.523438 13.808594 175.417969 13.941406 176.265625 14.222656 C 176.835938 14.410156 177.351562 14.742188 177.757812 15.1875 C 178.09375 15.613281 178.324219 16.117188 178.425781 16.652344 C 178.515625 17.308594 178.550781 17.972656 178.535156 18.636719 L 178.535156 21.503906 C 178.535156 23.503906 178.578125 24.769531 178.671875 25.300781 C 178.765625 25.835938 178.949219 26.351562 179.210938 26.828125 L 176.957031 26.828125 C 176.726562 26.335938 176.582031 25.804688 176.535156 25.261719 Z M 176.359375 20.449219 C 175.582031 20.769531 174.414062 21.039062 172.855469 21.265625 C 172.21875 21.332031 171.589844 21.476562 170.984375 21.695312 C 170.640625 21.835938 170.34375 22.082031 170.136719 22.394531 C 169.628906 23.191406 169.78125 24.242188 170.492188 24.859375 C 170.921875 25.246094 171.554688 25.4375 172.390625 25.4375 C 173.160156 25.453125 173.921875 25.261719 174.597656 24.890625 C 175.210938 24.558594 175.707031 24.035156 176.015625 23.402344 C 176.238281 22.917969 176.359375 22.195312 176.359375 21.25 Z M 176.359375 20.449219 "/>
<path style=" stroke:none;fill-rule:nonzero;fill:rgb(100%,100%,100%);fill-opacity:1;" d="M 181.828125 26.828125 L 181.828125 14.128906 L 183.757812 14.128906 L 183.757812 16.054688 C 184.25 15.15625 184.707031 14.558594 185.125 14.261719 C 185.527344 13.976562 186.007812 13.824219 186.5 13.828125 C 187.285156 13.847656 188.046875 14.089844 188.703125 14.523438 L 187.964844 16.519531 C 187.496094 16.226562 186.957031 16.066406 186.402344 16.054688 C 185.945312 16.050781 185.5 16.199219 185.136719 16.476562 C 184.75 16.777344 184.464844 17.191406 184.328125 17.664062 C 184.082031 18.476562 183.960938 19.324219 183.96875 20.175781 L 183.96875 26.828125 Z M 181.828125 26.828125 "/>
<path style=" stroke:none;fill-rule:nonzero;fill:rgb(100%,100%,100%);fill-opacity:1;" d="M 19.21875 38 C 8.847656 37.886719 0.5 29.414062 0.5 19 C 0.5 8.585938 8.847656 0.113281 19.21875 0 C 26.027344 -0.0742188 32.351562 3.53125 35.777344 9.441406 C 39.203125 15.347656 39.203125 22.652344 35.777344 28.558594 C 32.351562 34.46875 26.027344 38.074219 19.21875 38 Z M 19.21875 0.492188 L 19.21875 0.988281 C 9.386719 1.097656 1.476562 9.128906 1.476562 19 C 1.476562 28.871094 9.386719 36.902344 19.21875 37.011719 C 25.675781 37.085938 31.671875 33.667969 34.921875 28.066406 C 38.171875 22.460938 38.171875 15.539062 34.921875 9.933594 C 31.671875 4.332031 25.675781 0.914062 19.21875 0.988281 Z M 9.496094 32.574219 C 9.425781 32.574219 9.355469 32.558594 9.292969 32.527344 C 9.113281 32.449219 9 32.265625 9.003906 32.070312 L 9.117188 12.75 C 9.148438 10.199219 11.214844 8.148438 13.753906 8.144531 L 13.765625 8.144531 L 25.332031 8.179688 C 27.878906 8.207031 29.929688 10.289062 29.929688 12.847656 L 29.859375 24.46875 C 29.828125 27.015625 27.769531 29.066406 25.230469 29.074219 L 25.214844 29.074219 L 13.824219 29.007812 L 9.804688 32.441406 C 9.71875 32.519531 9.613281 32.566406 9.496094 32.574219 Z M 13.753906 9.132812 C 11.75 9.136719 10.125 10.757812 10.105469 12.765625 L 9.996094 31.011719 L 13.335938 28.152344 C 13.421875 28.074219 13.535156 28.035156 13.652344 28.035156 L 25.21875 28.105469 L 25.234375 28.105469 C 27.238281 28.101562 28.867188 26.472656 28.882812 24.460938 L 28.949219 12.835938 C 28.949219 10.820312 27.332031 9.179688 25.328125 9.160156 L 13.765625 9.121094 Z M 13.753906 9.132812 "/>
<path style=" stroke:none;fill-rule:nonzero;fill:rgb(100%,100%,100%);fill-opacity:1;" d="M 19.21875 0.492188 C 17.8125 0.5 16.414062 0.664062 15.050781 0.988281 C 13.605469 3.375 12.722656 6.054688 12.457031 8.835938 C 12.878906 8.695312 13.324219 8.625 13.765625 8.632812 L 25.34375 8.6875 C 27.621094 8.714844 29.449219 10.578125 29.4375 12.863281 L 29.367188 24.46875 C 29.351562 26.351562 28.074219 27.992188 26.253906 28.457031 C 29.113281 29.195312 32.109375 29.222656 34.984375 28.539062 C 38.421875 22.832031 38.527344 15.707031 35.261719 9.898438 C 31.996094 4.085938 25.859375 0.5 19.21875 0.507812 Z M 19.21875 0.492188 "/>
</g>
</svg>
