<svg xmlns="http://www.w3.org/2000/svg" width="192.029" height="37.218" viewBox="0 0 192.029 37.218"><defs><style>.a,.c{fill:#fff;}.a{font-size:24px;font-family:Muli-SemiBold, Muli;font-weight:600;}.b{font-family:Muli-Light, Muli;font-weight:300;}</style></defs><g transform="translate(-23.971 -13.725)"><text class="a" transform="translate(80 40)"><tspan x="0" y="0">Teste </tspan><tspan class="b" y="0">Ímpar </tspan></text><g transform="translate(-28.449 -58.12)"><g transform="translate(52.42 71.845)"><g transform="translate(0 0)"><path class="c" d="M71.029,109.062a18.608,18.608,0,1,1,0-37.217h0a18.608,18.608,0,1,1,0,37.217Zm0-36.733v.483a17.642,17.642,0,1,0,0,35.285h0a17.642,17.642,0,1,0,0-35.285Zm-9.559,31.42a.472.472,0,0,1-.2-.045.483.483,0,0,1-.28-.441L61.1,84.341a4.566,4.566,0,0,1,4.555-4.519h.014l11.372.035a4.571,4.571,0,0,1,4.521,4.571l-.068,11.383h0a4.56,4.56,0,0,1-4.55,4.508h-.019l-11.2-.064-3.948,3.365A.483.483,0,0,1,61.47,103.749Zm4.186-22.961a3.6,3.6,0,0,0-3.589,3.56l-.106,17.871,3.281-2.8a.483.483,0,0,1,.314-.116h0l11.375.066h.014A3.592,3.592,0,0,0,80.528,95.8l.064-11.386a3.6,3.6,0,0,0-3.56-3.6l-11.37-.035Zm15.355,15.02Z" transform="translate(-52.42 -71.845)"/></g><g transform="translate(11.964 0.484)"><path class="c" d="M133.375,74.85a18.292,18.292,0,0,0-4.1.483,18.1,18.1,0,0,0-2.547,7.675,3.9,3.9,0,0,1,1.288-.2l11.386.055a4.073,4.073,0,0,1,4.025,4.09l-.072,11.367a4.069,4.069,0,0,1-3.059,3.908,17.983,17.983,0,0,0,8.585.081A18.09,18.09,0,0,0,133.375,74.85Z" transform="translate(-126.73 -74.85)"/></g></g></g></g></svg>