<svg xmlns="http://www.w3.org/2000/svg" viewBox="0 0 199 64"><g id="Impar_logo_branco" transform="translate(-937 -2582)"><rect id="Retângulo_1339" data-name="Retângulo 1339" width="199" height="64" transform="translate(937 2582)" fill="#372b3a" opacity="0"></rect><g id="Impar_branco" transform="translate(817.92 2547.355)"><g id="Variacao1-logo_cores_chapadas" data-name="Variacao1-logo cores chapadas" transform="translate(127.081 46.645)"><g id="Caminho_841" data-name="Caminho 841" transform="translate(0 0)"><path id="Caminho_1506" data-name="Caminho 1506" d="M72.905,73.59a20.485,20.485,0,1,1,0-40.97h0a20.485,20.485,0,1,1,0,40.97Zm0-40.439v.532a19.422,19.422,0,1,0,0,38.843h0a19.422,19.422,0,1,0,0-38.843ZM62.383,67.734a.519.519,0,0,1-.223-.05.532.532,0,0,1-.308-.484l.124-20.831A5.026,5.026,0,0,1,66.989,41.4H67l12.518.041a5.032,5.032,0,0,1,4.977,5.03L84.429,59h0a5.018,5.018,0,0,1-5.011,4.963H79.4L67.074,63.9,62.728,67.6a.532.532,0,0,1-.346.131Zm4.608-25.276a3.959,3.959,0,0,0-3.951,3.919l-.117,19.673,3.612-3.08a.532.532,0,0,1,.346-.126h0l12.522.071h.016A3.954,3.954,0,0,0,83.362,59l.071-12.536A3.963,3.963,0,0,0,79.514,42.5L67,42.458ZM83.894,59Z" transform="translate(-52.42 -32.62)" fill="#fff"></path></g><g id="Caminho_842" data-name="Caminho 842" transform="translate(13.171 0.533)"><path id="Caminho_1507" data-name="Caminho 1507" d="M134.045,35.63a20.136,20.136,0,0,0-4.511.532,19.922,19.922,0,0,0-2.8,8.449,4.346,4.346,0,0,1,1.418-.225l12.534.06a4.486,4.486,0,0,1,4.445,4.5l-.094,12.52a4.479,4.479,0,0,1-3.368,4.3,19.8,19.8,0,0,0,9.45.089A19.913,19.913,0,0,0,134.045,35.63Z" transform="translate(-126.73 -35.63)" fill="#fff"></path></g></g><g id="Logo_original" data-name="Logo original" transform="translate(179.453 47.246)"><path id="Caminho_1508" data-name="Caminho 1508" d="M352,111.626h-3.641a.452.452,0,0,1-.452-.452V85.622a.452.452,0,0,1,.452-.452H352a.452.452,0,0,1,.452.452v25.552A.452.452,0,0,1,352,111.626Z" transform="translate(-347.91 -76.458)" fill="#fff"></path><path id="Caminho_1509" data-name="Caminho 1509" d="M641.9,80.508A13.684,13.684,0,0,0,628.31,94h0v24.375a.468.468,0,0,0,.468.468h3.612a.468.468,0,0,0,.468-.468v-12.8a.464.464,0,0,1,.753-.367,13.432,13.432,0,0,0,8.3,2.866,13.79,13.79,0,1,0,0-27.58Zm-.142,23.135c-4.982,0-8.81-4.183-8.81-9.347s3.828-9.342,8.81-9.342a9.351,9.351,0,0,1,0,18.69Z" transform="translate(-578.613 -72.607)" fill="#fff"></path><path id="Caminho_1510" data-name="Caminho 1510" d="M822.633,95.826a13.6,13.6,0,1,0-13.6,14.09,13.448,13.448,0,0,0,9.062-3.518V109.5h4.548V95.826Zm-13.447,9.645a9.351,9.351,0,0,1,0-18.69c4.982,0,8.811,4.183,8.811,9.342S814.164,105.472,809.186,105.472Z" transform="translate(-716.12 -74.436)" fill="#fff"></path><path id="Caminho_1511" data-name="Caminho 1511" d="M983.245,81.88h-5.507a12.752,12.752,0,0,0-6.517,1.772,10.042,10.042,0,0,0-4.511,8.8v16.1a.312.312,0,0,0,.312.312h3.913a.312.312,0,0,0,.312-.312v-14.5A10.481,10.481,0,0,1,971.309,93c.325-4.312,2.937-6.818,7.237-6.818h4.387a.312.312,0,0,0,.312-.314Z" transform="translate(-857.035 -73.751)" fill="#fff"></path><path id="Caminho_1512" data-name="Caminho 1512" d="M350.581,42.172q-.509,0-.339-.565l2.453-5.213a.519.519,0,0,1,.734-.339l3.275.053c.34.113.432.339.284.679l-2.611,4.933a.886.886,0,0,1-.791.452Z" transform="translate(-349.794 -36.013)" fill="#fff"></path><path id="Caminho_1513" data-name="Caminho 1513" d="M424.455,84.044a12.68,12.68,0,0,0-6.363-1.772h-.177a12.577,12.577,0,0,0-6.361,1.772,9.62,9.62,0,0,0-2.317,2.088,9.624,9.624,0,0,0-2.317-2.088,12.406,12.406,0,0,0-6.026-1.753l-.073-.021h-.415l-.069.021a12.365,12.365,0,0,0-6.026,1.753,10.043,10.043,0,0,0-4.512,8.8v16.1a.312.312,0,0,0,.314.312h3.913a.314.314,0,0,0,.287-.19V92.918a6.315,6.315,0,0,1,6.3-6.3h.014a6.313,6.313,0,0,1,6.281,6.294v16.024a.312.312,0,0,0,.312.312h4.062a.314.314,0,0,0,.3-.239V92.918a6.315,6.315,0,0,1,6.3-6.3h.028l.108-.012.11.012h.02a6.315,6.315,0,0,1,6.3,6.3v16.024a.312.312,0,0,0,.312.312h3.9a.312.312,0,0,0,.312-.312V92.84A10.031,10.031,0,0,0,424.455,84.044Z" transform="translate(-382.376 -74.072)" fill="#fff"></path></g></g></g></svg>