<svg xmlns="http://www.w3.org/2000/svg" width="64" height="63" viewBox="0 0 64 63"><defs><style>.a{fill:#fff;stroke:#707070;opacity:0;}.b{fill:#b0296b;}.c{stroke:none;}.d{fill:none;}</style></defs><g transform="translate(0.333 -0.292)"><g class="a" transform="translate(-0.333 0.292)"><rect class="c" width="64" height="63"/><rect class="d" x="0.5" y="0.5" width="63" height="62"/></g><g transform="translate(17.417 7.072)"><path class="b" d="M121.736,346.868a.868.868,0,1,1-.868-.868A.868.868,0,0,1,121.736,346.868Zm0,0" transform="translate(-109.585 -315.969)"/><path class="b" d="M20.831,121.736a3.451,3.451,0,0,0-1.93.588,3.47,3.47,0,0,0-5.88-1.145,3.467,3.467,0,0,0-5.209,0,3.47,3.47,0,0,0-6.076,2.293v4.862A4.356,4.356,0,0,0,0,131.8a14.769,14.769,0,0,0,5.9,11.8,2.6,2.6,0,0,1,1.042,2.083v7.464a.868.868,0,0,0,.868.868H21.7a.868.868,0,0,0,.868-.868v-7.325a34.859,34.859,0,0,0,1.288-5.28,34.818,34.818,0,0,0,.448-5.557v-9.786A3.471,3.471,0,0,0,20.831,121.736Zm0,1.736a1.736,1.736,0,0,1,1.736,1.736v5.728a1.736,1.736,0,1,1-3.472,0v-5.728A1.738,1.738,0,0,1,20.831,123.472Zm-5.208-1.736a1.736,1.736,0,0,1,1.736,1.736V129.2a1.736,1.736,0,0,1-3.472,0v-5.729A1.738,1.738,0,0,1,15.623,121.736Zm-5.208,0a1.736,1.736,0,0,1,1.736,1.736v3.993H8.68v-3.993A1.738,1.738,0,0,1,10.415,121.736Zm-5.208,0a1.738,1.738,0,0,1,1.736,1.736v3.993H4.34a4.349,4.349,0,0,0-.868.088v-4.081A1.738,1.738,0,0,1,5.208,121.736ZM8.68,152.288V148.3H20.831v3.993Zm13.462-12.015a51.348,51.348,0,0,1-1.311,5.418v.868H8.68v-.868a4.34,4.34,0,0,0-1.736-3.472A13.031,13.031,0,0,1,1.736,131.8a2.607,2.607,0,0,1,2.6-2.6h7.724a4.348,4.348,0,0,1-4.253,3.473H6.076a.868.868,0,0,0,0,1.736h.868a3.478,3.478,0,0,1,3.405,2.79.868.868,0,0,0,1.7-.339,5.187,5.187,0,0,0-1.774-2.976,6.114,6.114,0,0,0,2.73-2.4,3.464,3.464,0,0,0,4.548.6,3.468,3.468,0,0,0,5.012,1.857v1.053a33.119,33.119,0,0,1-.425,5.279Zm0,0" transform="translate(0 -109.585)"/><path class="b" d="M141.736,6.076V.868a.868.868,0,0,0-1.736,0V6.076a.868.868,0,0,0,1.736,0Zm0,0" transform="translate(-127.849)"/><path class="b" d="M211.692,28.384l3.682-3.683a.868.868,0,0,0-1.228-1.227l-3.682,3.683a.868.868,0,0,0,1.228,1.228Zm0,0" transform="translate(-191.965 -21.204)"/><path class="b" d="M38.385,22.534a.868.868,0,0,0,0-1.227L34.7,17.625a.868.868,0,0,0-1.227,1.228l3.683,3.682A.868.868,0,0,0,38.385,22.534Zm0,0" transform="translate(-30.337 -15.863)"/></g></g></svg>