<svg width="57" height="63" viewBox="0 0 57 63" fill="none" xmlns="http://www.w3.org/2000/svg">
<path d="M2.08929 13.8553H54.9107" stroke="#DB2525" stroke-linecap="round" stroke-linejoin="round"/>
<path d="M16.7645 13.8553V7.95561C16.7645 6.4009 17.3808 4.90987 18.4779 3.81053C19.575 2.71119 21.063 2.09358 22.6145 2.09358H34.3688C35.9203 2.09358 37.4083 2.71119 38.5054 3.81053C39.6025 4.90987 40.2188 6.4009 40.2188 7.95561V13.8176M49.044 13.8553V55.0235C49.044 56.5782 48.4277 58.0692 47.3306 59.1685C46.2335 60.2679 44.7455 60.8855 43.194 60.8855H13.8102C12.2587 60.8855 10.7707 60.2679 9.67362 59.1685C8.57653 58.0692 7.96019 56.5782 7.96019 55.0235V13.8553H49.044Z" stroke="#DB2525" stroke-linecap="round" stroke-linejoin="round"/>
<path d="M22.6312 28.5564V46.2011" stroke="#DB2525" stroke-linecap="round" stroke-linejoin="round"/>
<path d="M34.3688 28.5564V46.2011" stroke="#DB2525" stroke-linecap="round" stroke-linejoin="round"/>
</svg>
