<svg width="198" height="37" viewBox="0 0 198 37" fill="none" xmlns="http://www.w3.org/2000/svg">
<path d="M63.2852 10.9375V28H61.0586V10.9375H63.2852ZM68.7695 10.9375V12.7891H55.5859V10.9375H68.7695ZM75.0625 28.2344C74.1797 28.2344 73.3789 28.0859 72.6602 27.7891C71.9492 27.4844 71.3359 27.0586 70.8203 26.5117C70.3125 25.9648 69.9219 25.3164 69.6484 24.5664C69.375 23.8164 69.2383 22.9961 69.2383 22.1055V21.6133C69.2383 20.582 69.3906 19.6641 69.6953 18.8594C70 18.0469 70.4141 17.3594 70.9375 16.7969C71.4609 16.2344 72.0547 15.8086 72.7188 15.5195C73.3828 15.2305 74.0703 15.0859 74.7812 15.0859C75.6875 15.0859 76.4688 15.2422 77.125 15.5547C77.7891 15.8672 78.332 16.3047 78.7539 16.8672C79.1758 17.4219 79.4883 18.0781 79.6914 18.8359C79.8945 19.5859 79.9961 20.4062 79.9961 21.2969V22.2695H70.5273V20.5H77.8281V20.3359C77.7969 19.7734 77.6797 19.2266 77.4766 18.6953C77.2812 18.1641 76.9688 17.7266 76.5391 17.3828C76.1094 17.0391 75.5234 16.8672 74.7812 16.8672C74.2891 16.8672 73.8359 16.9727 73.4219 17.1836C73.0078 17.3867 72.6523 17.6914 72.3555 18.0977C72.0586 18.5039 71.8281 19 71.6641 19.5859C71.5 20.1719 71.418 20.8477 71.418 21.6133V22.1055C71.418 22.707 71.5 23.2734 71.6641 23.8047C71.8359 24.3281 72.082 24.7891 72.4023 25.1875C72.7305 25.5859 73.125 25.8984 73.5859 26.125C74.0547 26.3516 74.5859 26.4648 75.1797 26.4648C75.9453 26.4648 76.5938 26.3086 77.125 25.9961C77.6562 25.6836 78.1211 25.2656 78.5195 24.7422L79.832 25.7852C79.5586 26.1992 79.2109 26.5938 78.7891 26.9688C78.3672 27.3438 77.8477 27.6484 77.2305 27.8828C76.6211 28.1172 75.8984 28.2344 75.0625 28.2344ZM89.9102 24.6367C89.9102 24.3242 89.8398 24.0352 89.6992 23.7695C89.5664 23.4961 89.2891 23.25 88.8672 23.0312C88.4531 22.8047 87.8281 22.6094 86.9922 22.4453C86.2891 22.2969 85.6523 22.1211 85.082 21.918C84.5195 21.7148 84.0391 21.4688 83.6406 21.1797C83.25 20.8906 82.9492 20.5508 82.7383 20.1602C82.5273 19.7695 82.4219 19.3125 82.4219 18.7891C82.4219 18.2891 82.5312 17.8164 82.75 17.3711C82.9766 16.9258 83.293 16.5312 83.6992 16.1875C84.1133 15.8438 84.6094 15.5742 85.1875 15.3789C85.7656 15.1836 86.4102 15.0859 87.1211 15.0859C88.1367 15.0859 89.0039 15.2656 89.7227 15.625C90.4414 15.9844 90.9922 16.4648 91.375 17.0664C91.7578 17.6602 91.9492 18.3203 91.9492 19.0469H89.7812C89.7812 18.6953 89.6758 18.3555 89.4648 18.0273C89.2617 17.6914 88.9609 17.4141 88.5625 17.1953C88.1719 16.9766 87.6914 16.8672 87.1211 16.8672C86.5195 16.8672 86.0312 16.9609 85.6562 17.1484C85.2891 17.3281 85.0195 17.5586 84.8477 17.8398C84.6836 18.1211 84.6016 18.418 84.6016 18.7305C84.6016 18.9648 84.6406 19.1758 84.7188 19.3633C84.8047 19.543 84.9531 19.7109 85.1641 19.8672C85.375 20.0156 85.6719 20.1562 86.0547 20.2891C86.4375 20.4219 86.9258 20.5547 87.5195 20.6875C88.5586 20.9219 89.4141 21.2031 90.0859 21.5312C90.7578 21.8594 91.2578 22.2617 91.5859 22.7383C91.9141 23.2148 92.0781 23.793 92.0781 24.4727C92.0781 25.0273 91.9609 25.5352 91.7266 25.9961C91.5 26.457 91.168 26.8555 90.7305 27.1914C90.3008 27.5195 89.7852 27.7773 89.1836 27.9648C88.5898 28.1445 87.9219 28.2344 87.1797 28.2344C86.0625 28.2344 85.1172 28.0352 84.3438 27.6367C83.5703 27.2383 82.9844 26.7227 82.5859 26.0898C82.1875 25.457 81.9883 24.7891 81.9883 24.0859H84.168C84.1992 24.6797 84.3711 25.1523 84.6836 25.5039C84.9961 25.8477 85.3789 26.0938 85.832 26.2422C86.2852 26.3828 86.7344 26.4531 87.1797 26.4531C87.7734 26.4531 88.2695 26.375 88.668 26.2188C89.0742 26.0625 89.3828 25.8477 89.5938 25.5742C89.8047 25.3008 89.9102 24.9883 89.9102 24.6367ZM100.234 15.3203V16.9844H93.3789V15.3203H100.234ZM95.6992 12.2383H97.8672V24.8594C97.8672 25.2891 97.9336 25.6133 98.0664 25.832C98.1992 26.0508 98.3711 26.1953 98.582 26.2656C98.793 26.3359 99.0195 26.3711 99.2617 26.3711C99.4414 26.3711 99.6289 26.3555 99.8242 26.3242C100.027 26.2852 100.18 26.2539 100.281 26.2305L100.293 28C100.121 28.0547 99.8945 28.1055 99.6133 28.1523C99.3398 28.207 99.0078 28.2344 98.6172 28.2344C98.0859 28.2344 97.5977 28.1289 97.1523 27.918C96.707 27.707 96.3516 27.3555 96.0859 26.8633C95.8281 26.3633 95.6992 25.6914 95.6992 24.8477V12.2383ZM108.039 28.2344C107.156 28.2344 106.355 28.0859 105.637 27.7891C104.926 27.4844 104.312 27.0586 103.797 26.5117C103.289 25.9648 102.898 25.3164 102.625 24.5664C102.352 23.8164 102.215 22.9961 102.215 22.1055V21.6133C102.215 20.582 102.367 19.6641 102.672 18.8594C102.977 18.0469 103.391 17.3594 103.914 16.7969C104.438 16.2344 105.031 15.8086 105.695 15.5195C106.359 15.2305 107.047 15.0859 107.758 15.0859C108.664 15.0859 109.445 15.2422 110.102 15.5547C110.766 15.8672 111.309 16.3047 111.73 16.8672C112.152 17.4219 112.465 18.0781 112.668 18.8359C112.871 19.5859 112.973 20.4062 112.973 21.2969V22.2695H103.504V20.5H110.805V20.3359C110.773 19.7734 110.656 19.2266 110.453 18.6953C110.258 18.1641 109.945 17.7266 109.516 17.3828C109.086 17.0391 108.5 16.8672 107.758 16.8672C107.266 16.8672 106.812 16.9727 106.398 17.1836C105.984 17.3867 105.629 17.6914 105.332 18.0977C105.035 18.5039 104.805 19 104.641 19.5859C104.477 20.1719 104.395 20.8477 104.395 21.6133V22.1055C104.395 22.707 104.477 23.2734 104.641 23.8047C104.812 24.3281 105.059 24.7891 105.379 25.1875C105.707 25.5859 106.102 25.8984 106.562 26.125C107.031 26.3516 107.562 26.4648 108.156 26.4648C108.922 26.4648 109.57 26.3086 110.102 25.9961C110.633 25.6836 111.098 25.2656 111.496 24.7422L112.809 25.7852C112.535 26.1992 112.188 26.5938 111.766 26.9688C111.344 27.3438 110.824 27.6484 110.207 27.8828C109.598 28.1172 108.875 28.2344 108.039 28.2344ZM123.73 10.9375V28H122.289V10.9375H123.73ZM122.184 9.53125L124.422 6.25H126.109L123.402 9.53125H122.184ZM129.367 17.9453V28H127.961V15.3203H129.309L129.367 17.9453ZM129.109 20.875L128.43 20.5234C128.477 19.7734 128.617 19.0703 128.852 18.4141C129.094 17.7578 129.43 17.1797 129.859 16.6797C130.289 16.1797 130.805 15.7891 131.406 15.5078C132.008 15.2266 132.691 15.0859 133.457 15.0859C134.074 15.0859 134.633 15.1719 135.133 15.3438C135.641 15.5078 136.07 15.7695 136.422 16.1289C136.781 16.4805 137.059 16.9414 137.254 17.5117C137.449 18.082 137.547 18.7656 137.547 19.5625V28H136.152V19.6094C136.152 18.7656 136.02 18.1055 135.754 17.6289C135.496 17.1523 135.133 16.8125 134.664 16.6094C134.203 16.4062 133.668 16.3047 133.059 16.3047C132.34 16.3047 131.73 16.4531 131.23 16.75C130.738 17.0391 130.336 17.418 130.023 17.8867C129.719 18.3477 129.492 18.8438 129.344 19.375C129.195 19.8984 129.117 20.3984 129.109 20.875ZM137.535 19.7734L136.598 19.7969C136.637 19.1797 136.777 18.5898 137.02 18.0273C137.27 17.4648 137.609 16.9648 138.039 16.5273C138.469 16.082 138.98 15.7305 139.574 15.4727C140.176 15.2148 140.852 15.0859 141.602 15.0859C142.258 15.0859 142.844 15.1758 143.359 15.3555C143.875 15.5273 144.309 15.8047 144.66 16.1875C145.02 16.5625 145.293 17.043 145.48 17.6289C145.668 18.2148 145.762 18.918 145.762 19.7383V28H144.355V19.7266C144.355 18.8281 144.223 18.1328 143.957 17.6406C143.699 17.1406 143.34 16.793 142.879 16.5977C142.418 16.4023 141.879 16.3047 141.262 16.3047C140.652 16.3125 140.117 16.4258 139.656 16.6445C139.195 16.8555 138.809 17.1367 138.496 17.4883C138.191 17.832 137.957 18.2031 137.793 18.6016C137.637 19 137.551 19.3906 137.535 19.7734ZM150.707 17.7578V32.875H149.301V15.3203H150.613L150.707 17.7578ZM159.52 21.543V21.7891C159.52 22.7344 159.41 23.6016 159.191 24.3906C158.973 25.1797 158.656 25.8633 158.242 26.4414C157.836 27.0117 157.332 27.4531 156.73 27.7656C156.129 28.0781 155.445 28.2344 154.68 28.2344C153.922 28.2344 153.246 28.1172 152.652 27.8828C152.059 27.6484 151.547 27.3164 151.117 26.8867C150.695 26.4492 150.355 25.9414 150.098 25.3633C149.848 24.7773 149.672 24.1367 149.57 23.4414V20.1953C149.688 19.4297 149.879 18.7344 150.145 18.1094C150.41 17.4844 150.75 16.9453 151.164 16.4922C151.586 16.0391 152.086 15.6914 152.664 15.4492C153.242 15.207 153.902 15.0859 154.645 15.0859C155.418 15.0859 156.105 15.2383 156.707 15.543C157.316 15.8398 157.828 16.2734 158.242 16.8438C158.664 17.4062 158.98 18.0859 159.191 18.8828C159.41 19.6719 159.52 20.5586 159.52 21.543ZM158.113 21.7891V21.543C158.113 20.8008 158.035 20.1133 157.879 19.4805C157.73 18.8477 157.5 18.2969 157.188 17.8281C156.883 17.3516 156.492 16.9805 156.016 16.7148C155.547 16.4492 154.988 16.3164 154.34 16.3164C153.668 16.3164 153.094 16.4297 152.617 16.6562C152.148 16.875 151.758 17.168 151.445 17.5352C151.133 17.8945 150.887 18.2891 150.707 18.7188C150.527 19.1484 150.395 19.5703 150.309 19.9844V23.7227C150.457 24.3164 150.695 24.8672 151.023 25.375C151.352 25.875 151.789 26.2773 152.336 26.582C152.891 26.8789 153.566 27.0273 154.363 27.0273C155.004 27.0273 155.559 26.8945 156.027 26.6289C156.496 26.3633 156.883 25.9922 157.188 25.5156C157.5 25.0391 157.73 24.4844 157.879 23.8516C158.035 23.2188 158.113 22.5312 158.113 21.7891ZM170.348 25.7266V19.1875C170.348 18.5859 170.223 18.0664 169.973 17.6289C169.723 17.1914 169.355 16.8555 168.871 16.6211C168.387 16.3867 167.789 16.2695 167.078 16.2695C166.422 16.2695 165.836 16.3867 165.32 16.6211C164.812 16.8477 164.41 17.1562 164.113 17.5469C163.824 17.9297 163.68 18.3555 163.68 18.8242L162.273 18.8125C162.273 18.3359 162.391 17.875 162.625 17.4297C162.859 16.9844 163.191 16.5859 163.621 16.2344C164.051 15.8828 164.562 15.6055 165.156 15.4023C165.758 15.1914 166.418 15.0859 167.137 15.0859C168.043 15.0859 168.84 15.2383 169.527 15.543C170.223 15.8477 170.766 16.3047 171.156 16.9141C171.547 17.5234 171.742 18.2891 171.742 19.2109V25.3398C171.742 25.7773 171.773 26.2305 171.836 26.6992C171.906 27.168 172.004 27.5547 172.129 27.8594V28H170.641C170.547 27.7188 170.473 27.3672 170.418 26.9453C170.371 26.5156 170.348 26.1094 170.348 25.7266ZM170.676 20.6172L170.699 21.6953H167.945C167.227 21.6953 166.582 21.7617 166.012 21.8945C165.449 22.0195 164.973 22.207 164.582 22.457C164.191 22.6992 163.891 22.9922 163.68 23.3359C163.477 23.6797 163.375 24.0703 163.375 24.5078C163.375 24.9609 163.488 25.375 163.715 25.75C163.949 26.125 164.277 26.4258 164.699 26.6523C165.129 26.8711 165.637 26.9805 166.223 26.9805C167.004 26.9805 167.691 26.8359 168.285 26.5469C168.887 26.2578 169.383 25.8789 169.773 25.4102C170.164 24.9414 170.426 24.4297 170.559 23.875L171.168 24.6836C171.066 25.0742 170.879 25.4766 170.605 25.8906C170.34 26.2969 169.992 26.6797 169.562 27.0391C169.133 27.3906 168.625 27.6797 168.039 27.9062C167.461 28.125 166.805 28.2344 166.07 28.2344C165.242 28.2344 164.52 28.0781 163.902 27.7656C163.293 27.4531 162.816 27.0273 162.473 26.4883C162.137 25.9414 161.969 25.3242 161.969 24.6367C161.969 24.0117 162.102 23.4531 162.367 22.9609C162.633 22.4609 163.016 22.0391 163.516 21.6953C164.023 21.3438 164.633 21.0781 165.344 20.8984C166.062 20.7109 166.867 20.6172 167.758 20.6172H170.676ZM176.898 17.418V28H175.504V15.3203H176.863L176.898 17.418ZM181.387 15.2266L181.352 16.5156C181.195 16.4922 181.043 16.4727 180.895 16.457C180.746 16.4414 180.586 16.4336 180.414 16.4336C179.805 16.4336 179.27 16.5469 178.809 16.7734C178.355 16.9922 177.973 17.3008 177.66 17.6992C177.348 18.0898 177.109 18.5508 176.945 19.082C176.781 19.6055 176.688 20.168 176.664 20.7695L176.148 20.9688C176.148 20.1406 176.234 19.3711 176.406 18.6602C176.578 17.9492 176.84 17.3281 177.191 16.7969C177.551 16.2578 178 15.8398 178.539 15.543C179.086 15.2383 179.727 15.0859 180.461 15.0859C180.641 15.0859 180.816 15.1016 180.988 15.1328C181.168 15.1562 181.301 15.1875 181.387 15.2266Z" fill="white"/>
<path d="M18.5092 36.999C16.0786 36.999 13.6718 36.5205 11.4262 35.5908C9.1806 34.6611 7.1402 33.2985 5.4215 31.5806C3.7028 29.8628 2.33945 27.8234 1.4093 25.579C0.479147 23.3345 0.000402451 20.9289 0.000402451 18.4995C0.000402451 16.0701 0.479147 13.6645 1.4093 11.42C2.33945 9.17559 3.7028 7.13622 5.4215 5.41838C7.1402 3.70054 9.1806 2.33788 11.4262 1.40819C13.6718 0.478505 16.0786 -5.11956e-08 18.5092 0V0C20.9398 -5.11955e-08 23.3466 0.478505 25.5922 1.40819C27.8378 2.33788 29.8782 3.70054 31.5969 5.41838C33.3156 7.13622 34.6789 9.17559 35.6091 11.42C36.5392 13.6645 37.018 16.0701 37.018 18.4995C37.018 20.9289 36.5392 23.3345 35.6091 25.579C34.6789 27.8234 33.3156 29.8628 31.5969 31.5806C29.8782 33.2985 27.8378 34.6611 25.5922 35.5908C23.3466 36.5205 20.9398 36.999 18.5092 36.999V36.999ZM18.5092 0.481166V0.961331C13.8552 0.961331 9.39179 2.80921 6.10091 6.09844C2.81002 9.38767 0.96123 13.8488 0.96123 18.5005C0.96123 23.1522 2.81002 27.6133 6.10091 30.9026C9.39179 34.1918 13.8552 36.0397 18.5092 36.0397V36.0397C23.1632 36.0397 27.6266 34.1918 30.9175 30.9026C34.2084 27.6133 36.0572 23.1522 36.0572 18.5005C36.0572 13.8488 34.2084 9.38767 30.9175 6.09844C27.6266 2.80921 23.1632 0.961331 18.5092 0.961331V0.481166ZM9.00141 31.7171C8.93263 31.717 8.86471 31.7017 8.80248 31.6724C8.71889 31.6337 8.6482 31.5718 8.59882 31.4941C8.54944 31.4163 8.52347 31.326 8.52399 31.234L8.63339 12.4228C8.64569 11.2289 9.12809 10.088 9.97611 9.24707C10.8241 8.40618 11.9694 7.93309 13.164 7.93027H13.1779L24.489 7.96507C25.6861 7.97816 26.8298 8.4627 27.6717 9.31349C28.5137 10.1643 28.9858 11.3127 28.9857 12.5093L28.9181 23.8256C28.9045 25.0172 28.422 26.1556 27.5751 26.9943C26.7281 27.833 25.5848 28.3047 24.3925 28.3072H24.3736L13.2336 28.2436L9.30677 31.5889C9.22341 31.6665 9.11519 31.7119 9.00141 31.7171V31.7171ZM13.165 8.89062C12.2241 8.89343 11.3221 9.2663 10.6541 9.92859C9.98603 10.5909 9.60567 11.4894 9.59521 12.4298L9.48978 30.1961L12.7532 27.4125C12.8402 27.3381 12.951 27.2972 13.0655 27.2972L24.3796 27.3628H24.3935C25.3355 27.3604 26.2385 26.9863 26.906 26.3218C27.5734 25.6573 27.9513 24.7562 27.9573 23.8147L28.0209 12.4954C28.021 11.553 27.6492 10.6487 26.9863 9.97866C26.3234 9.30861 25.4228 8.92694 24.48 8.91647L13.171 8.88167L13.165 8.89062Z" fill="white"/>
<path d="M18.5093 0.481159C17.1362 0.486893 15.7681 0.647977 14.4312 0.961332C13.0219 3.28118 12.1558 5.88962 11.8979 8.59138C12.3107 8.45374 12.7438 8.38652 13.179 8.39255L24.504 8.44722C25.5731 8.45981 26.5938 8.89428 27.3438 9.65594C28.0937 10.4176 28.512 11.4447 28.5074 12.5133L28.4358 23.8137C28.4284 24.706 28.126 25.5709 27.5757 26.2735C27.0254 26.9762 26.2581 27.4773 25.3932 27.6988C28.1913 28.4143 31.1211 28.4419 33.9322 27.7793C35.5858 25.0494 36.4828 21.9289 36.5313 18.7381C36.5798 15.5472 35.7779 12.401 34.2079 9.62218C32.638 6.8434 30.3565 4.53221 27.5977 2.92581C24.8389 1.31941 21.7021 0.475655 18.5093 0.481159V0.481159Z" fill="white"/>
</svg>
